# xmcd
#
# Track frame offsets: 
#        150
#        51574
#        79569
#        109183
#        156527
#        207999
#        261043
#        277655
#        295715
#
# Disc length: 4141 seconds
#
# Revision: 4
# Processed by: cddbd v1.5.2PL0 Copyright (c) Steve Scherf et al.
# Submitted via: ExactAudioCopy v0.99pb5
#
DISCID=7e102b09
DTITLE=Jimi Hendrix - Astro Man - Stockholm Second Show Jan 9th '69
DYEAR=2003
DGENRE=Classic Rock
TTITLE0=I Don't Live Today (26) (live 1_69) w. introduction
TTITLE1=Spanish Castle Magic (23) (live 1_69)
TTITLE2=Hey Joe (43) (live 1_69)
TTITLE3=Voodoo Chile  (39) (live 1_69)
TTITLE4=Sunshine Of Your Love (18) (live 1_69)
TTITLE5=Red House (38) (live 1_69)
TTITLE6=Fire (44) (live 1_69)
TTITLE7=Purple Haze (60) (live 1_69)
TTITLE8=Star Spangled Banner (14) (live 1_69)
EXTD=Live In Stockholm - Second Show Jan 9th 1969 [CD6]
EXTT0=
EXTT1=
EXTT2=
EXTT3=
EXTT4=
EXTT5=
EXTT6=
EXTT7=
EXTT8=
PLAYORDER=
